g fire_muzzle
v -12.89012 3.576279E-06 6.498778
v -12.89012 3.576279E-06 -6.498767
v 13.10495 3.576279E-06 -6.498767
v 13.10495 3.576279E-06 6.498778
v -12.89012 -6.49877 3.460795E-06
v -12.89012 6.498787 3.460795E-06
v 13.10495 6.498787 3.460795E-06
v 13.10495 -6.49877 3.460795E-06
v -5.529478 14.29246 -4.643902
v -13.10495 -5.00679E-06 1.210719E-06
v -5.529478 12.1579 -8.833227
v -5.529478 15.02798 1.210719E-06
v -5.529486 8.833239 -12.15789
v -5.529478 14.29247 4.643904
v -5.529486 4.643894 -14.29246
v -5.529478 12.15788 8.833227
v -5.529486 7.152557E-07 -15.02798
v -5.529478 8.833225 12.15789
v -5.529478 -4.643905 -14.29245
v -5.529486 4.643904 14.29246
v -5.529486 -8.833236 -12.15789
v -5.529486 7.152557E-07 15.02798
v -5.529486 -12.1579 -8.833227
v -5.529478 -4.643908 14.29246
v -5.529486 -14.29246 -4.643903
v -5.529486 -8.833225 12.15789
v -5.529486 -15.02798 9.648502E-07
v -5.529486 -12.1579 8.833227
v -5.529486 -14.29246 4.643904
vt 0 0
vt 0 1
vt 1 1
vt 1 0
vt 0 0
vt 0 1
vt 1 1
vt 1 0
vt 0.6545084 0.9755283
vt 0.4999999 0.5
vt 0.7938926 0.9045086
vt 0.4999999 0.9999998
vt 0.9045084 0.7938927
vt 0.3454914 0.9755281
vt 0.9755282 0.6545085
vt 0.2061073 0.9045084
vt 0.9999999 0.5
vt 0.09549148 0.7938926
vt 0.9755282 0.3454915
vt 0.0244717 0.6545085
vt 0.9045084 0.2061074
vt -4.088515E-08 0.5
vt 0.7938925 0.09549149
vt 0.02447166 0.3454915
vt 0.6545084 0.02447175
vt 0.09549144 0.2061074
vt 0.4999999 2.978451E-08
vt 0.2061073 0.09549152
vt 0.3454914 0.02447175
vn 0 1 0
vn 0 1 0
vn 0 1 0
vn 0 1 0
vn 0 0 1
vn 0 0 1
vn 0 0 1
vn 0 0 1
vn -0.8929611 0.4281028 -0.1390986
vn -1 0 0
vn -0.8929613 0.3641664 -0.2645805
vn -0.8929613 0.4501335 0
vn -0.8929615 0.2645817 -0.3641652
vn -0.8929614 0.4281019 0.1390996
vn -0.8929613 0.1390985 -0.4281025
vn -0.8929612 0.3641654 0.2645823
vn -0.8929613 0 -0.4501333
vn -0.8929612 0.2645828 0.3641651
vn -0.8929611 -0.1390989 -0.4281028
vn -0.8929613 0.1390997 0.4281021
vn -0.8929613 -0.2645809 -0.3641661
vn -0.8929614 0 0.4501333
vn -0.8929613 -0.3641655 -0.2645817
vn -0.8929612 -0.139099 0.4281024
vn -0.8929614 -0.4281022 -0.1390988
vn -0.8929613 -0.2645813 0.364166
vn -0.8929614 -0.4501333 0
vn -0.8929613 -0.3641653 0.2645819
vn -0.8929613 -0.4281022 0.1390988
g fire_muzzle_0
f 3/3/3 2/2/2 1/1/1
f 4/4/4 3/3/3 1/1/1
f 7/7/7 6/6/6 5/5/5
f 8/8/8 7/7/7 5/5/5
g fire_muzzle_1
f 11/11/11 10/10/10 9/9/9
f 9/9/9 10/10/10 12/12/12
f 13/13/13 10/10/10 11/11/11
f 12/12/12 10/10/10 14/14/14
f 15/15/15 10/10/10 13/13/13
f 14/14/14 10/10/10 16/16/16
f 17/17/17 10/10/10 15/15/15
f 16/16/16 10/10/10 18/18/18
f 19/19/19 10/10/10 17/17/17
f 18/18/18 10/10/10 20/20/20
f 21/21/21 10/10/10 19/19/19
f 20/20/20 10/10/10 22/22/22
f 23/23/23 10/10/10 21/21/21
f 22/22/22 10/10/10 24/24/24
f 25/25/25 10/10/10 23/23/23
f 24/24/24 10/10/10 26/26/26
f 27/27/27 10/10/10 25/25/25
f 26/26/26 10/10/10 28/28/28
f 29/29/29 10/10/10 27/27/27
f 28/28/28 10/10/10 29/29/29
